<svg xmlns="http://www.w3.org/2000/svg" viewBox="0 0 256 256" width="256" height="256">
  <rect width="256" height="256" rx="40" fill="#2563eb"/>
  <g transform="translate(128,128) scale(0.55)">
    <path d="M164.9-91.7c-6.7-10.2-15.3-19.2-25.6-26.5-10.2-7.4-21.6-12.6-33.7-15.7-12.1-3.1-24.6-4-36.9-2.6-12.3 1.4-24.1 5.1-34.9 10.8l-20.8 10.4c-3.5 1.7-6.4 4.5-8.2 7.9-1.8 3.4-2.5 7.3-1.9 11.1l10.4 67.7c0.8 4.9 3.4 9.4 7.3 12.6 3.9 3.2 8.8 4.9 13.8 4.9h5.2c2.4 0 4.7-0.9 6.4-2.6 1.7-1.7 2.6-4 2.6-6.4v-45.5c0-2.9 0.7-5.8 2.1-8.3 1.4-2.6 3.4-4.7 5.8-6.2l4.3-2.7c5.3-3.4 11.4-5.2 17.7-5.2 6.2 0 12.4 1.8 17.7 5.2l4.3 2.7c2.4 1.5 4.4 3.7 5.8 6.2 1.4 2.6 2.1 5.4 2.1 8.3v45.5c0 2.4 0.9 4.7 2.6 6.4 1.7 1.7 4 2.6 6.4 2.6h5.2c5 0 9.9-1.7 13.8-4.9 3.9-3.2 6.5-7.6 7.3-12.6l10.4-67.7c0.6-3.8-0.1-7.7-1.9-11.1-1.8-3.4-4.7-6.2-8.2-7.9l-20.8-10.4" fill="none" stroke="white" stroke-width="18" stroke-linecap="round" stroke-linejoin="round" transform="rotate(135)"/>
  </g>
  <circle cx="128" cy="192" r="16" fill="white" opacity="0.9"/>
</svg>
